<?xml version="1.0" encoding="utf-8"?>
<!-- Generator: Adobe Illustrator 22.1.0, SVG Export Plug-In . SVG Version: 6.00 Build 0)  -->
<svg version="1.1" id="Слой_1" xmlns="http://www.w3.org/2000/svg" xmlns:xlink="http://www.w3.org/1999/xlink" x="0px" y="0px"
	 viewBox="0 0 70.9 70.9" style="enable-background:new 0 0 70.9 70.9;" xml:space="preserve">
<style type="text/css">
	.st0{fill:#F8F9F7;}
</style>
<g>
	<defs>
		<rect id="SVGID_1_" width="70.9" height="70.3"/>
	</defs>
	<clipPath id="SVGID_2_">
		<use xlink:href="#SVGID_1_"  style="overflow:visible;"/>
	</clipPath>
	<g style="clip-path:url(#SVGID_2_);">
		
			<image style="overflow:visible;" width="750" height="931" xlink:href="C60A5C46.jpg"  transform="matrix(0.2569 0 0 0.2753 0 -100.0457)">
		</image>
	</g>
</g>
<g>
	<path class="st0" d="M69.8,0.3L70,69.6L0.7,69.8L0.5,0.5L69.8,0.3 M70.9-0.8L-0.7-0.6l0.2,71.6l71.6-0.2L70.9-0.8L70.9-0.8z"/>
</g>
<g>
	<g>
		<path class="st0" d="M27.8,44.6c-0.1,0-0.2-0.2-0.2-0.6c0-0.4,0.1-0.5,0.2-0.5c1.8,0,3.1-0.1,3.8-0.2c0.7-0.1,1.2-0.4,1.5-0.9
			c0.3-0.5,0.4-1.3,0.4-2.5l-0.1-19.2l-2.6,0c-1.7,0-2.9,0.2-3.7,0.4c-0.8,0.3-1.5,1-2,2c-0.6,1-1.2,2.8-1.8,5.2
			c0,0-0.1,0.1-0.2,0.1c-0.2,0-0.3,0-0.5-0.1c-0.2,0-0.2-0.1-0.2-0.1L23.6,18c0-0.1,0.2-0.1,0.5-0.1c0.2,0,0.3,0,0.4,0.1
			c0.4,0.6,0.9,1,1.7,1.1c0.8,0.2,1.9,0.3,3.4,0.3l11.3,0c1.5,0,2.6-0.1,3.4-0.3c0.8-0.2,1.3-0.6,1.7-1.1c0.1-0.1,0.2-0.1,0.4-0.1
			c0.3,0,0.4,0,0.5,0.1l1.4,10.2c0,0.1-0.2,0.1-0.5,0.2c-0.3,0-0.5,0-0.5-0.1c-0.7-2.4-1.3-4.2-1.9-5.2c-0.6-1-1.2-1.7-2-2
			c-0.8-0.3-2-0.4-3.7-0.4l-2.7,0l0.1,19.2c0,1.2,0.1,2,0.4,2.5c0.3,0.5,0.8,0.8,1.5,0.9c0.7,0.1,2,0.2,3.8,0.2
			c0.1,0,0.1,0.1,0.1,0.2c0,0.1,0.1,0.2,0.1,0.4c0,0.1,0,0.3-0.1,0.4c0,0.1-0.1,0.2-0.1,0.2l-6.2,0l-2.6,0L27.8,44.6z"/>
	</g>
</g>
<g>
	<path class="st0" d="M36,5l29.6,29.2L34.9,62.4L5.3,33.2L36,5 M36,3.5L3.6,33.2L34.8,64l32.4-29.7L36,3.5L36,3.5z"/>
</g>
<g>
	<path class="st0" d="M56.7,12l0.1,40.5l-42.7,0.1L14,12.1L56.7,12 M57.9,10.8l-45,0.1L13,53.8l45-0.1L57.9,10.8L57.9,10.8z"/>
</g>
</svg>
